<?xml version="1.0" standalone="no"?>
<!DOCTYPE svg PUBLIC "-//W3C//DTD SVG 1.1//EN" "http://www.w3.org/Graphics/SVG/1.1/DTD/svg11.dtd">
<svg xmlns="http://www.w3.org/2000/svg">
<metadata>Generated by Fontastic.me</metadata>
<defs>
<font id="arcade" horiz-adv-x="512">
<font-face font-family="arcade" units-per-em="512" ascent="480" descent="-32"/>
<missing-glyph horiz-adv-x="512" />

<glyph glyph-name="account" unicode="&#97;" d="M474 0c-11 0-22 9-22 21l0 56c0 23-8 47-25 64-17 17-41 25-64 25l-220 0c-24 0-47-8-64-25-17-17-26-39-26-64l0-56c0-10-8-21-21-21-11 0-21 9-21 21l0 56c0 34 12 68 38 92 24 23 58 38 92 38l222 0c34 0 68-15 91-38 26-26 39-58 39-92l0-56c2-10-9-21-19-21z m-220 250c-73 0-130 59-130 130 0 70 57 132 130 132 72 0 130-60 130-130 0-71-60-132-130-132z m0 219c-51 0-92-40-92-89 0-49 41-90 90-90 49 0 89 41 89 90 2 49-38 89-87 89z"/>
<glyph glyph-name="add" unicode="&#98;" d="M436 412l-78 76c-2 2-4 4-9 4l-281 0c-12 0-19-7-19-17l0-429c0-9 7-19 19-19l356 0c10 0 20 7 20 19l0 354c-3 5-5 7-8 12z m-136-200l-46 0 0-44c0-5-5-10-10-10-5 0-10 5-10 10l0 44-44 0c-5 0-10 5-10 10 0 5 5 10 10 10l44 0 0 44c0 4 5 9 10 9 5 0 10-5 10-9l0-44 43 0c5 0 10-5 10-10 0-5-2-10-7-10z m41 188l0 92 93-92z"/>
<glyph glyph-name="arrow-button" unicode="&#99;" d="M256 512c-142 0-256-114-256-256 0-142 114-256 256-256 142 0 256 114 256 256 0 142-114 256-256 256z m99-261l-59-59c-2-1-4-2-6-2-3 0-5 1-6 2-4 3-4 9 0 13l44 44-144 0c-5 0-9 4-9 9 0 6 3 10 9 10l144 0-44 44c-4 3-4 9 0 13 3 3 9 3 13 0l59-60c0 0 1-1 1-2 0 0 0-1 1-1 0-1 2-3 2-4 0-1 0-2-2-3 0 0 0-1-1-1-1-1-1-1-2-3z m2 4c0 1 1 2 1 3 0 1 0 3-1 4 0-1 1-3 1-4 0-1-1-2-1-3z m-1-1c1 0 1 1 0 0 1 1 1 0 0 0z"/>
<glyph glyph-name="arrow" unicode="&#100;" d="M267 137c-5 0-17 0-22 5l-188 199c-11 12-11 29 0 40 11 12 28 12 40 0l170-171 171 171c11 12 28 12 40 0 11-11 11-28 0-40l-194-193c-5-6-11-11-17-11z"/>
<glyph glyph-name="big-arrow" unicode="&#101;" d="M307 79c-4 0-14 0-18 5-10 9-10 23 0 32l139 140-139 140c-10 9-10 23 0 32 9 10 28 14 37 10l158-159c9-9 9-23 0-32l-158-159c-5-4-14-9-19-9z m158 158l-442 0c-14 0-23 10-23 24 0 14 9 23 23 23l442 0c14 0 24-9 24-23 0-14-10-24-24-24z"/>
<glyph glyph-name="cart" unicode="&#102;" d="M205 134c37 0 67-30 67-67 0-37-32-67-67-67-36 0-67 30-67 67 0 37 29 67 67 67z m240 0c37 0 67-30 67-67 0-37-30-67-67-67-37 0-67 30-67 67 0 37 32 67 67 67z m-240-36c-16 0-30-13-30-29 0-16 14-30 30-30 16 0 29 14 29 30 0 16-13 29-29 29z m240 0c-16 0-29-13-29-29 0-16 13-30 29-30 16 0 30 14 30 30 0 16-12 29-30 29z m-445 400c4 10 14 16 24 14l104-33c8-2 14-10 14-18l0-30 354-43c8 0 16-8 16-18l0-116c0-41-30-85-79-85l-266 0c-37 0-63 34-63 65l0 213-90 30c-10 2-16 11-14 21z m142-104l0-160c0-11 10-29 25-29l266 0c26 0 42 25 42 49l0 100z"/>
<glyph glyph-name="eye-off" unicode="&#103;" d="M33 63l413 413 30-30-413-413z m223 406c102 0 201-68 252-179 4-8 4-17 0-21-51-115-150-184-252-184-102 0-201 69-252 180-4 8-4 17 0 25 51 111 150 179 252 179z m0-51c-81 0-162-55-205-141 43-89 124-140 205-140 81 0 162 55 205 140-43 90-124 141-205 141z m0-13c64 0 115-55 115-123 0-69-51-128-115-128-64 0-115 55-115 128 0 64 51 123 115 123z m0-51c-38 0-68-34-68-77 0-42 30-76 68-76 38 0 68 34 68 76 0 43-30 77-68 77z m0-8c34 0 60-30 60-69 0-38-26-68-60-68-34 0-60 30-60 68 0 39 26 69 60 69z"/>
<glyph glyph-name="eye-on" unicode="&#104;" d="M256 448c104 0 201-69 254-181 3-7 3-15 0-22-53-112-150-181-254-181-104 0-201 69-254 181-3 7-3 15 0 22 53 112 150 181 254 181z m0-50c-83 0-161-54-206-142 45-88 123-142 206-142 83 0 161 54 206 142-45 88-123 142-206 142z m0-16c64 0 116-57 116-126 0-69-52-126-116-126-64 0-116 57-116 126 0 69 52 126 116 126z m0-50c-38 0-69-34-69-76 0-42 31-76 69-76 38 0 69 34 69 76 0 42-31 76-69 76z m0-10c34 0 61-29 61-66 0-37-27-66-61-66-34 0-61 29-61 66 0 37 27 66 61 66z"/>
<glyph glyph-name="gears" unicode="&#106;" d="M144 327c16 2 29 2 45 0l6-43c12-4 24-8 33-14l36 27c12-9 24-19 31-31l-27-36c6-9 12-21 14-33l43-6c2-16 2-30 0-45l-41-8c-4-12-8-24-14-34l27-35c-9-12-19-24-31-32l-36 28c-9-6-21-12-33-14l-6-43c-16-2-30-2-45 0l-6 43c-12 2-24 8-36 14l-35-28c-12 10-24 20-32 32l28 35c-6 10-12 22-14 34l-43 6c-2 16-2 31 0 45l43 6c4 12 8 24 14 35l-28 36c10 12 20 23 32 31l35-27c10 6 22 12 36 14z m23-101c-33 0-61-27-61-61 0-33 28-61 61-61 34 0 61 28 61 61-2 34-27 61-61 61z m256 282c10-2 20-6 30-12l-8-31c8-6 14-12 20-20l31 8c6-10 10-20 12-30l-28-15c2-8 2-18 0-28l28-16c-2-12-6-19-12-29l-31 8c-6-8-12-14-20-20l8-32c-10-5-20-9-30-11l-15 27c-8-2-18-2-28 0l-16-27c-10 2-19 6-29 11l8 32c-8 6-14 12-20 20l-30-8c-5 10-9 19-11 29l27 16c-2 8-2 18 0 28l-27 15c2 10 7 22 11 30l32-8c6 8 12 14 20 20l-10 31c10 6 19 10 29 12l16-28c8 2 18 2 28 0z m-15-77c-20 8-44-2-52-21-7-20 2-44 22-52 20-7 43 2 51 22 8 20 0 43-21 51z"/>
<glyph glyph-name="loop" unicode="&#109;" d="M478 0c-10 0-17 3-24 10l-85 86c-38-28-86-45-137-45-126 0-232 103-232 232 0 127 102 232 232 232 126 0 232-102 232-232 0-51-17-99-44-136l85-86c14-13 14-34 0-47-10-11-17-14-27-14z m-246 444c-89 0-164-72-164-164 0-92 72-164 164-164 44 0 82 17 113 44 0 0 0 0 3 4 0 0 0 0 4 3 27 31 44 69 44 113 0 92-75 164-164 164z"/>
<glyph glyph-name="tool" unicode="&#110;" d="M107 72c-5-5-11-8-18-8-6 0-13 3-17 8-10 9-10 25 0 35 9 9 25 9 35 0 10-10 10-26 0-35m402 321c-2 11-18 16-27 8l-57-58-51-10-41 42 10 50 58 57c4 5 5 11 4 16-2 6-7 10-12 11-49 10-99-5-134-40-41-41-34-109-28-142l-206-179c-33-34-33-89 0-123 17-16 39-25 62-25 23 0 45 9 62 26l178 205c16-3 32-5 47-5 40 0 73 12 95 33 35 35 50 85 40 134"/>
<glyph glyph-name="twitter" unicode="&#111;" d="M456 362c1-4 1-9 1-14 0-141-105-304-297-304-59 0-114 18-160 48 8-1 16-1 25-1 49 0 94 17 130 45-46 1-85 32-98 75 7-1 13-2 20-2 9 0 19 1 27 4-48 10-83 53-83 105l0 1c14-8 30-13 47-14-28 20-47 52-47 89 0 20 5 38 14 54 52-65 129-107 215-112-1 8-2 17-2 25 0 59 46 107 104 107 30 0 57-13 76-34 24 5 46 14 66 26-7-25-24-46-46-59 21 2 42 8 60 17-14-22-31-41-52-56z"/>
<glyph glyph-name="valid" unicode="&#112;" d="M457 414l-189-237c-4-8-12-12-24-12-12 0-16 4-23 12l-87 111c-12 11-8 31 4 43 12 12 31 8 43-4l63-79 166 205c0 0 4 4 4 4-44 35-99 55-158 55-142 0-256-114-256-256 0-142 114-256 256-256 142 0 256 114 256 256 0 59-20 114-55 158z"/>
<glyph glyph-name="delete" unicode="&#113;" d="M424 409l23-2-29-366c-1-18-16-32-35-32l-266 0c-18 0-33 14-34 32l-29 366 23 2 28-366c1-6 6-11 12-11l266 0c7 0 12 5 13 11z m-89-53l23-2-22-269-23 2z m-170 0l22-269-23-2-21 269z m93-1l0-269-23 0 0 269z m-243 72l0 23 142 0 0 62 183 0 0-62 142 0 0-23z m302 62l-137 0 0-39 137 0z"/>
<glyph glyph-name="burger" unicode="&#114;" d="M479 396l-446 0c-9 0-17 7-17 18 0 11 8 13 17 13l446 0c9 0 17-6 17-17 0-12-8-14-17-14z m0-156l-446 0c-9 0-17 7-17 18 0 11 8 14 17 14l446 0c9 0 17-7 17-18 0-11-8-14-17-14z m0-155l-446 0c-9 0-17 6-17 17 0 12 6 18 17 18l446 0c9 0 17-6 17-18 0-11-8-17-17-17z"/>
<glyph glyph-name="cross" unicode="&#115;" d="M481 11c-4 0-10 2-14 6l-445 445c-9 8-9 21 0 29 8 9 21 9 30 0l444-444c9-9 9-21 0-30-4-4-10-6-15-6z m-444 0c-5 0-11 2-15 6-9 9-9 21 0 30l445 444c8 9 21 9 29 0 9-8 9-21 0-29l-444-445c-5-4-11-6-15-6z"/>
<glyph glyph-name="file" unicode="&#105;" d="M492 443c-2 2-4 2-7 2l-300 9c-5 0-9-2-9-7-2-2-31-204-71-293l-83 2c-2 0-4-2-4-2-2-3-2-5-2-7 2-5 22-96 95-98 78-2 225-2 254-2l2 0c3 0 5 0 7 0 85 15 116 327 120 389 0 3 0 5-2 7z m-116-167l-144 4c-5 0-7 5-7 9 0 5 4 9 9 9l144-4c5 0 9-5 9-9-2-5-6-9-11-9z m-162-65c-5 0-9 5-9 9 0 5 4 9 9 9l82-2c5 0 9-4 9-9 0-7-4-9-9-9z m29 141c-5 0-9 4-9 9 0 4 4 9 9 9l153-5c5 0 9-4 9-9 0-7-2-11-7-11z m-134-287c-47 0-69 51-76 73l250-4c15-34 31-58 46-72-53 0-158 0-220 3z"/>
<glyph glyph-name="wait" unicode="&#116;" d="M256 512c-142 0-256-114-256-256 0-142 114-256 256-256 142 0 256 114 256 256 0 142-114 256-256 256z m197-276l-197 0c-12 0-20 8-20 20l0 197c0 12 8 20 20 20 12 0 20-8 20-20l0-177 177 0c12 0 20-8 20-20 0-12-8-20-20-20z"/>
<glyph glyph-name="error" unicode="&#118;" d="M256 488c-130 0-236-106-236-236 0-130 106-236 236-236 130 0 236 106 236 236 0 130-106 236-236 236z m102-295c12-12 12-32 0-43-11-12-31-12-43 0l-59 59-59-59c-12-12-32-12-43 0-12 11-12 31 0 43l59 59-59 59c-12 12-12 32 0 43 11 12 31 12 43 0l59-59 59 59c12 12 32 12 43 0 12-11 12-31 0-43l-59-59z"/>
<glyph glyph-name="check" unicode="&#119;" d="M181 39c-12 0-23 4-31 16l-126 166c-12 15-12 43 8 55 15 12 43 12 55-8l94-122 240 315c12 16 40 19 56 8 15-12 19-40 7-55l-271-355c-4-16-16-20-32-20z"/>
<glyph glyph-name="warning" unicode="&#117;" d="M256 512c-142 0-256-114-256-256 0-142 114-256 256-256 142 0 256 114 256 256 0 142-114 256-256 256z m28-83l-8-205-32 0-8 205z m-4-291c-8-4-12-8-20-8-8 0-16 4-20 8-4 4-8 12-8 20 0 7 4 15 8 19 4 4 12 8 20 8 8 0 16-4 20-8 4-8 8-12 8-19 0-8-4-16-8-20z"/>
<glyph glyph-name="address" unicode="&#120;" d="M436 4l-89 0c-13 0-23 9-23 23l0 149-136 0 0-149c0-14-10-23-23-23l-89 0c-13 0-23 9-23 23l0 259c0 8 6 16 15 16 10 0 15-6 15-16l0-252 78 0 0 150c0 13 10 23 23 23l148 0c13 0 23-10 23-23l0-150 77 0 0 252c0 8 6 16 16 16 9 0 15-6 15-16l0-258c-4-13-15-24-27-24z m57 214c-4 0-8 2-11 4l-226 250-226-250c-5-6-15-6-21-2-5 6-5 15-1 21l237 262c2 3 5 3 11 3 4 0 8-2 11-3l237-262c6-6 6-15-1-21-2-2-6-2-10-2z"/>
<glyph glyph-name="free-delivery" unicode="&#121;" d="M475 280l-124 0 0 18 124 0c5 0 10 3 10 9l4 49c0 2-1 6-2 7-2 3-5 4-7 4l-325 0c-5 0-10-4-10-10l-4-49c0-2 1-6 2-7 2-2 5-3 7-3l116 0 0-18-116 0c-8 0-15 3-20 9-5 6-9 13-7 22l4 49c2 14 14 25 28 25l325 0c8 0 15-4 20-10 5-6 8-13 7-21l-5-49c-1-14-13-25-27-25z m-59-211l-250 0c-8 0-16 4-21 8-4 5-8 13-7 22l3 32 17-1-2-32c0-3 1-6 2-8 3-2 5-3 8-3l250 0c4 0 9 3 9 8l20 185-93 0 0 18 112 0-21-204c-1-14-13-25-27-25z m-78 0l-105 0 33 316 104 0z m-84 18l69 0 28 280-69 0z m39 280c-18 0-37 8-47 16-8 8-13 17-13 28 0 11 5 20 13 27 16 14 42 14 59 0 11-9 19-27 19-43 0-9-4-16-8-21-6-5-15-7-23-7z m-17 64c-6 0-13-2-18-6-4-3-7-8-7-14 0-6 3-11 7-14 11-10 37-17 46-10 2 1 2 5 2 8 0 10-6 23-13 29-4 6-11 7-17 7z m66-64c-9 0-17 2-23 7-6 6-9 13-9 23 0 14 8 32 19 42 16 13 42 13 59-1 9-7 13-16 13-27 0-11-4-20-13-28-9-7-30-16-46-16z m16 64c-6 0-13-2-17-6-8-7-14-19-14-28 0-4 2-8 3-9 8-7 34 0 45 10 5 3 7 8 7 14 0 5-2 11-7 14-4 4-11 5-17 5z m-313-215l169 0 0-18-169 0z m-45 45l168 0 0-18-168 0z m0-91l168 0 0-18-168 0z"/>
<glyph glyph-name="payement" unicode="&#122;" d="M482 390l-461 0c-8 0-15 5-15 15 0 9 5 15 15 15l459 0c7 0 15-6 15-15 0-10-6-15-13-15z m0-84l-461 0c-8 0-15 6-15 15 0 10 5 16 15 16l459 0c7 0 15-6 15-16 0-9-6-15-13-15z m-38-186l-385 0c-29 0-51 23-51 52l0 280c0 29 22 52 51 52l385 0c28 0 51-23 51-52l0-278c0-31-23-54-51-54z m-385 355c-13 0-23-9-23-23l0-278c0-14 10-23 23-23l385 0c13 0 22 9 22 23l0 278c0 14-9 23-22 23z m347-262l-161 0c-8 0-16 6-16 16 0 9 6 15 16 15l161 0c7 0 15-6 15-15 0-10-8-16-15-16z m-237 0l-46 0c-7 0-15 6-15 16 0 9 6 15 15 15l46 0c7 0 15-6 15-15 0-10-8-16-15-16z"/>
<glyph glyph-name="update" unicode="&#65;" d="M435 288c-9 0-19 6-22 16-23 70-87 122-163 122-74 0-141-52-164-122 0-13-12-19-25-16-10 6-16 16-13 29 26 89 109 153 205 153 93 0 179-64 205-153 3-13-4-23-16-26-4-3-7-3-7-3z m0 0c-3 0-6 0-6 0l-96 38c-10 4-16 16-13 29 3 13 16 16 29 13l73-29 29 74c3 13 16 16 29 13 13-4 16-16 13-29l-35-93c-7-10-13-16-23-16z m-182-243c-93 0-179 64-205 153-3 10 3 23 16 26 13 3 22-3 26-16 22-70 86-122 163-122 73 0 141 52 163 122 3 13 16 19 26 16 12-3 19-16 16-26-26-92-112-153-205-153z m-221 41c-3 0-6 0-6 0-13 4-16 16-13 29l35 93c3 16 16 19 29 16l93-35c12-7 16-19 12-29-3-13-16-19-28-13l-74 29-29-74c-3-9-9-16-19-16z"/>
<glyph glyph-name="delivery" unicode="&#66;" d="M125 182c-31 0-56 26-56 56 0 31 25 56 56 56 30 0 56-25 56-56 0-30-26-56-56-56z m0 88c-18 0-32-14-32-32 0-17 14-32 32-32 17 0 32 15 32 32 0 18-16 32-32 32z m213-43l-170 0c-6 0-13 5-13 13 0 8 5 13 13 13l170 0c6 0 12-5 12-13 0-8-6-13-12-13z m-258 0l-62 0c-7 0-13 5-13 13 0 8 5 13 13 13l62 0c6 0 13-5 13-13 0-8-5-13-13-13z m408 0l-53 0c-6 0-13 5-13 13 0 8 5 13 13 13l42 0 0 80c0 3-5 5-8 5l-37 0c-5 0-10 3-11 8-13 32-21 54-27 72-5 12-16 12-16 12l-66 0c-6 0-13 5-13 13 0 8 5 13 13 13l66 0c11 0 32-6 38-29 5-16 13-37 24-64l29 0c17 0 32-13 32-29l0-91c-2-11-7-16-13-16z m-102-45c-31 0-56 26-56 56 0 31 25 56 56 56 30 0 56-25 56-56 0-30-26-56-56-56z m0 88c-18 0-32-14-32-32 0-17 14-32 32-32 17 0 32 15 32 32 0 18-15 32-32 32z m-367-43c-6 0-13 5-13 13l0 232c0 18 15 34 34 34l248 0c18 0 34-15 34-34l0-163c0-7-5-13-13-13-8 0-13 5-13 13l0 163c0 5-5 10-10 10l-246 0c-5 0-10-5-10-10l0-234c0-6-4-11-11-11z"/>
<glyph glyph-name="download" unicode="&#67;" d="M437 39c11 0 19-9 19-19 0-11-8-20-19-20l-362 0c-11 0-19 9-19 20 0 10 8 19 19 19z m-181 473c11 0 19-9 19-20l0-329 75 75c8 8 20 8 28 0 7-8 7-20 0-28l-108-108c-1 0-1 0-2-1-1-1-3-2-5-3-2-1-4-1-7-1-3 0-5 0-7 1-2 1-4 2-5 3-1 1-1 1-2 1l0 0-108 108c-7 8-7 20 0 28 8 8 20 8 28 0l75-75 0 329c0 11 8 20 19 20z"/>
<glyph glyph-name="info" unicode="&#107;" d="M256 512c-141 0-256-115-256-256 0-141 115-256 256-256 141 0 256 115 256 256 0 141-115 256-256 256z m15-369l-30 0 0 162 30 0z m0 200c-2-3-7-5-15-5-8 0-10 0-15 5-3 3-5 8-5 13 0 5 2 10 5 13 5 5 10 5 15 5 5 0 10-3 15-5 3-3 5-8 5-13 0-5-2-10-5-13z"/>
<glyph glyph-name="clock" unicode="&#68;" d="M415 347c-3 0-3 0 0 0-8 3-40 34-40 40 0 3 0 6 3 8l26 26c3 3 6 3 8 3 3 0 6 0 9-3l28-28c3-3 3-6 3-9 0-3-3-6-3-9l-25-25c-6-3-9-3-9-3z m-22 40c5-6 14-17 19-23l18 17-23 23z m42-9z m-31 32z m-165-214c-3 0-3 0-6 3-3 3-3 9 0 11l94 100c3 3 9 3 11 0 3-3 3-8 0-11l-93-100c-3 0-3-3-6-3z m8-173c-102 0-184 85-184 190 0 106 82 191 184 191 103 0 185-85 185-191 0-105-82-190-185-190z m0 364c-93 0-167-77-167-174 0-96 76-173 167-173 91 0 168 77 168 173 0 97-74 174-168 174z m23-3c-5 0-8 3-8 9l0 28c0 6 3 9 8 9l23 0 0 45c0 0 0 3-3 3l-82 0c-3 0-6-3-6-3l0-43 23 0c5 0 8-2 8-8l0-29c0-5-3-8-8-8-6 0-9 3-9 6l0 19-23 0c-5 0-8 6-8 9l0 54c0 9 14 17 23 17l82 0c9 0 17-8 17-17l0-51c0-6-3-9-8-9l-20 0 0-20c0-5-6-11-9-11z"/>
<glyph glyph-name="edit" unicode="&#69;" d="M498 415l-60 60c-17 17-45 17-63 0l-28-28c0 0 0 0-3 0l-270-271c0 0 0 0-3-2 0 0 0 0 0-3-3-9-14-34-48-131-3-9-3-20 5-29 6-5 12-8 20-8 3 0 6 0 9 3 97 34 122 42 131 45 0 0 0 0 3 0 2 0 2 0 2 3l305 299c17 17 17 45 0 62z m-142 6l91-85-256-256-89 88z m-268-384l-25 26c11 31 22 62 28 82l80-80c-20-5-54-17-83-28z m-34-11c-3 0-3 0-3 0 0 0-3 2 0 5 0 3 3 6 3 9l9-12c-3 0-6-2-9-2z m427 344l-20-20-91 85 23 23c8 8 19 8 28 0l60-60c8-8 8-20 0-28z"/>
<glyph glyph-name="orders" unicode="&#70;" d="M254 0c-3 0-5 0-7 2l-205 119c-5 2-7 7-7 12l0 235c0 4 2 9 7 11 5 3 9 3 14 0l205-118c4-3 7-7 7-12l0-235c0-5-3-9-7-12-3-2-5-2-7-2z m-191 142l177-102 0 202-177 102z m191-142c-3 0-5 0-7 2-5 3-7 7-7 12l0 235c0 5 2 9 7 12l204 118c5 3 10 3 14 0 5-2 7-7 7-11l0-235c0-5-2-10-7-12l-204-119c-3-2-5-2-7-2z m14 242l0-202 177 102 0 202z m-14-7c-3 0-5 0-7 2l-205 119c-7 5-9 12-5 19 5 7 12 9 19 4l198-114 197 114 14-23-204-119c-3 0-5-2-7-2z m-103-9c-7 0-14 7-14 14l0 70c0 4 3 9 7 11l205 119c7 5 16 2 19-5 4-7 2-16-5-21l-198-114 0-63c0-7-4-11-14-11z m103 9c-3 0-5 0-7 2l-205 119c-5 2-7 7-7 12 0 4 2 9 7 11l205 119c4 2 9 2 14 0l204-119c5-2 7-7 7-11 0-5-2-10-7-12l-204-119c-3 0-5-2-7-2z m-177 133l177-103 177 103-177 102z"/>
<glyph glyph-name="bike" unicode="&#71;" d="M203 196c-5-50-49-88-101-88-56 0-102 44-102 98 0 54 46 98 102 98 53 0 96-39 101-88l0-1 27 0-66 120-38 0c-6 0-11 5-11 10 0 6 5 10 11 10l77 0c6 0 10-4 10-10 0-5-4-10-10-10l-16 0 61-110 74 108-37 68-45 0c-6 0-10 4-10 10 0 5 4 10 10 10l51 0c4 0 7-2 9-6l66-119c12 4 24 7 38 7 56 0 101-44 101-98 0-53-45-97-101-97-56 0-102 44-102 97 0 34 18 64 46 82l-15 26-77-113c-1 0-1-1-1-1-1 0-1-1-1-1 0 0-1 0-1-1-1 0-1 0-1 0-1-1-1-1-2-1 0 0 0 0-1 0 0 0-1 0-2 0 0 0 0 0 0 0z m204 87c-11 0-20-2-29-5l38-68c2-4 0-10-5-13-1-1-3-1-4-1-4 0-8 2-10 5l-38 68c-21-14-35-37-35-63 0-43 37-77 83-77 45 0 82 34 82 77 0 42-37 77-82 77z m-305 5c-44 0-80-36-80-80 0-43 36-79 80-79 41 0 74 30 79 69l0 0-83 0c-5 0-9 4-10 9l0 1c0 6 5 11 10 11l83 0c-5 39-39 69-79 69z"/>
<glyph glyph-name="bills" unicode="&#72;" d="M439 393l-78 0c-7 0-13 6-13 12l0 77c0 7 6 13 13 13 6 0 12-6 12-13l0-64 66 0c7 0 13-6 13-13 0-6-4-12-13-12z m-12-320l-276 0c-14 0-27 12-27 27l0 369c0 15 13 28 27 28l220 0c9 0 15-4 17-8l58-58c4-4 8-13 8-19l0-314c-2-15-12-25-27-25z m-276 396l-2-371 278-2 2 2 0 314-60 57z m220-190l-160 0c-6 0-13 7-13 13 0 7 7 13 13 13l160 0c9 0 13-6 13-13 0-6-4-13-13-13z m0-64l-160 0c-6 0-13 7-13 13 0 7 7 13 13 13l160 0c7 0 13-6 13-13 0-6-4-13-13-13z m0-64l-160 0c-6 0-13 7-13 13 0 7 7 13 13 13l160 0c7 0 13-6 13-13 0-6-4-13-13-13z m-62 192l-100 0c-6 0-13 7-13 13 0 7 7 13 13 13l100 0c7 0 13-6 13-13 0-6-6-13-13-13z m79-334l-301 0c-14 0-27 12-27 27l0 374c0 15 13 27 27 27 7 0 13-6 13-12 0-7-6-15-13-15 0 0-2 0-2-3l0-371c0 0 0-2 2-2l301 0c0 0 2 0 2 2 0 7 7 13 13 13 7 0 13-6 13-13 0-15-13-27-28-27z"/>
<glyph glyph-name="contact" unicode="&#73;" d="M124 49c-2 0-7 0-9 2-10 5-15 15-15 25l0 46-7 0c-39 0-73 32-73 71l0 97c0 39 34 71 73 71l234 0c39 0 73-32 73-71l0-97c0-39-32-71-73-71l-117 0-69-66c-4-5-12-7-17-7z m-31 290c-27 0-49-22-49-46l0-98c0-27 22-46 49-46l17 0c7 0 12-5 12-12l0-59c0-2 0-2 0-2l73 70c2 3 5 3 7 3l122 0c27 0 49 22 49 46l0 98c0 26-22 46-49 46z m334-107c-8 0-13 4-13 12 0 7 5 12 10 12 15 2 44 10 44 49l0 78c0 24-24 46-51 46l-190 0c-25 0-42-17-44-44 0-2-7-10-12-7-8 0-13 5-13 12 3 37 32 66 69 66l190 0c41 0 75-32 75-71l0-80c0-42-24-69-65-73z m-125-32l-190 0c-7 0-12 5-12 12 0 7 5 12 12 12l193 0c7 0 12-5 12-12 0-7-7-12-15-12z m0 61l-190 0c-7 0-12 5-12 12 0 7 5 12 12 12l193 0c7 0 12-5 12-12 0-7-7-12-15-12z"/>
<glyph glyph-name="cb" unicode="&#74;" d="M418 188l-121 0c-5 0-9-4-9-9 0-5 4-8 9-8l121 0c5 0 9 3 9 8 0 5-4 9-9 9z m92 179l0 39c0 21-17 38-36 38l-438 0c-19 0-36-17-36-38l0-287c0-20 17-37 36-37l437 0c20 0 36 17 36 37l0 248z m-17-77l-476 0 0 68 476 0z m-457 137l437 0c10 0 19-9 19-21l0-31-475 0 0 31c0 12 9 21 19 21z m437-326l-437 0c-10 0-19 8-19 20l0 152 476 0 0-152c0-12-8-20-20-20z"/>
<glyph glyph-name="money" unicode="&#75;" d="M435 435l-70 70c-3 4-7 7-15 7l-256 0c-14 0-26-12-26-26l0-460c0-14 12-26 26-26l324 0c14 0 26 12 26 26l0 392c0 9-5 14-9 17z m-15-8l-62 0 0 61z m-2-410l-324 0c-5 0-9 3-9 9l0 460c0 6 4 9 9 9l247 0 0-77c0-5 4-8 9-8l77 0 0-384c0-6-4-9-9-9z m-201 261l-12 0-5-13 15 0c0-2 0-6 0-9 0-3 0-7 0-9l-10 0-5-13 17 0c5-39 25-58 56-58 19 0 31 5 36 10l0 17c-7-7-19-12-34-12-24 0-39 16-43 43l51 0 5 13-56 0c0 2 0 6 0 9 0 3 0 5 0 9l65 0 5 13-68 0c3 24 15 43 42 43 16 0 28-5 35-12l0 17c-7 5-19 10-36 10-36 0-53-25-58-58z"/>
<glyph glyph-name="dots2" unicode="&#76;" d="M296 472c0-23-18-41-40-41-22 0-40 18-40 41 0 22 18 40 40 40 22 0 40-18 40-40z m0-216c0-22-18-40-40-40-22 0-40 18-40 40 0 22 18 40 40 40 22 0 40-18 40-40z m0-216c0-22-18-40-40-40-22 0-40 18-40 40 0 23 18 41 40 41 22 0 40-18 40-41z"/>
<glyph glyph-name="dots" unicode="&#78;" d="M85 185c-39 0-71 31-71 71 0 40 32 71 71 71 40 0 71-31 71-71 0-40-31-71-71-71z m0 114c-22 0-42-20-42-43 0-23 20-43 42-43 23 0 43 20 43 43 0 23-20 43-43 43z m171-114c-40 0-71 31-71 71 0 40 31 71 71 71 40 0 71-31 71-71 0-40-31-71-71-71z m0 114c-23 0-43-20-43-43 0-23 20-43 43-43 23 0 43 20 43 43 0 23-20 43-43 43z m171-114c-40 0-71 31-71 71 0 40 31 71 71 71 39 0 71-31 71-71 0-40-32-71-71-71z m0 114c-23 0-43-20-43-43 0-23 20-43 43-43 22 0 42 20 42 43 0 23-20 43-42 43z"/>
<glyph glyph-name="mail" unicode="&#79;" d="M256 217c-10 0-20 4-29 10l-159 140c-5 4-7 12 0 18 4 4 12 4 16 0l158-139c8-6 18-6 26 0l158 139c6 4 12 4 18 0 5-4 5-12-2-16l-157-140c-9-8-19-12-29-12z m178-92c-2 0-6 0-8 2l-107 86c-6 4-6 12-2 16 5 7 13 7 17 2l106-86c6-4 6-12 2-16 0-2-4-4-8-4z m-358 0c-4 0-6 2-10 4-5 6-3 14 2 18l106 86c6 5 12 5 16-2 5-6 5-12-2-16l-106-86c0-4-4-4-6-4z m364-45l-364 0c-33 0-60 24-60 57l0 240c0 33 27 57 60 57l364 0c33 0 60-24 60-57l0-242c0-31-27-55-60-55z m-364 330c-21 0-35-15-35-33l0-242c0-18 14-33 35-33l364 0c19 0 35 15 35 33l0 242c0 18-14 33-35 33z"/>
<glyph glyph-name="linkedin" unicode="&#108;" d="M348 343c40 0 78-16 106-44 28-28 43-66 43-105l0-174-99 0 0 174c0 13-5 26-15 35-9 9-22 15-35 15-13 0-26-6-35-15-9-9-15-22-15-35l0-174-99 0 0 174c0 39 16 77 44 105 28 28 66 44 105 44z m-249-25l-99 0 0-298 99 0z m-49 75c27 0 49 22 49 50 0 27-22 49-49 49-28 0-50-22-50-49 0-28 22-50 50-50z"/>
<glyph glyph-name="link-ext" unicode="&#77;" d="M447 472l-382 0c-33 0-60-27-60-60l0-234c0-32 27-59 60-59l172 0 0-41-102 0 0-38 242 0 0 41-102 0 0 40 172 0c33 0 60 27 60 60l0 231c0 33-27 60-60 60z m19-294c0-11-8-19-19-19l-382 0c-11 0-19 8-19 19l0 234c0 11 8 19 19 19l382 0c11 0 19-8 19-19z m-281 46c-2 0-8 0-11 2-5 6-5 17 0 22l138 137c5 6 16 6 21 0 6-5 6-16 0-21l-134-138c-3-2-8-2-14-2z m135 137l-137 0c-9 0-17 8-17 16 0 8 8 16 17 16l137 0c8 0 16-8 16-16 0-8-5-16-16-16z m5-143c-8 0-16 8-16 16l0 141c0 8 8 16 16 16 8 0 17-8 17-16l0-138c0-11-9-19-17-19z"/>
<glyph glyph-name="quote" unicode="&#80;" d="M441 390l-98 0c-9 0-14 5-14 14l0 95c0 8 5 14 14 14 8 0 14-6 14-14l0-81 84 0c8 0 14-6 14-14 0-9-6-14-14-14z m-17-392l-336 0c-17 0-31 14-31 31l0 450c0 17 14 31 31 31l269 0c8 0 14-3 19-8l73-70c6-6 8-14 8-23l0-380c-2-17-16-31-33-31z m-336 487c-3 0-3-3-3-3l0-450c0-3 0-3 3-3l336 0c3 0 3 0 3 3l0 380c0 0 0 3 0 3l-73 70z m269-232l-196 0c-9 0-14 5-14 14 0 8 5 14 14 14l196 0c8 0 14-6 14-14 0-9-6-14-14-14z m0-79l-196 0c-9 0-14 6-14 14 0 9 5 14 14 14l196 0c8 0 14-5 14-14 0-8-6-14-14-14z m0-78l-196 0c-9 0-14 6-14 14 0 8 5 14 14 14l196 0c8 0 14-6 14-14 0-8-6-14-14-14z m-76 235l-123 0c-8 0-14 6-14 14 0 9 6 14 14 14l123 0c9 0 14-5 14-14 0-8-5-14-14-14z"/>
<glyph glyph-name="big-arrow-thin" unicode="&#81;" d="M185 72c-2 0-7 0-9 3l-174 172c-2 2-2 4-2 8 0 2 2 7 2 9l174 172c5 4 11 4 15 0 5-4 5-11 0-15l-165-166 168-165c4-5 4-11 0-15-3-3-5-3-9-3z m316 172l-490 0c-7 0-11 5-11 11 0 7 4 11 11 11l490 0c7 0 11-4 11-11 0-4-4-11-11-11z"/>
<glyph glyph-name="doc" unicode="&#82;" d="M405 70l-288 0c-15 0-28 13-28 28l0 386c0 15 12 28 28 28l288 0c6 0 12 0 18-3 7-3 11-10 10-18l0-393c0-15-13-28-28-28z m-288 415c-1 0-1 0-1-1l0-386c0 0 0-1 1-1l288 0c1 0 1 1 1 1l0 387-289 0z m251-480c-1 0-2 0-2 0l-1 0c-1 0-3 0-4 0l-259 68c-5 1-9 4-10 9-1 5 0 10 4 13 3 4 8 5 13 3l253-65c1 9 1 26 1 51 0 7 6 13 14 13 7 0 13-6 13-13 0-58-2-68-9-75-4-3-8-5-13-4z m-22 240l-167 0c-8 0-14 6-14 13 0 8 6 14 14 14l167 0c7 0 13-6 13-14 0-7-6-13-13-13z m-65 67l-105 0c-7 0-13 6-13 13 0 8 6 14 13 14l105 0c7 0 13-6 13-14 0-7-6-13-13-13z"/>
<glyph glyph-name="tool-border" unicode="&#83;" d="M100 0c-41 0-77 24-92 62-16 37-7 80 21 108l1 1 181 158c-2 19-3 38-1 57 2 30 14 58 35 80 37 37 90 53 141 43 12-2 23-11 26-24 4-12 1-25-8-34l-50-49-6-30 24-24 30 6 49 50c6 6 15 9 24 9 16 1 31-11 34-27 10-51-6-104-43-141-28-25-64-38-101-36-12 0-24 1-36 2l-158-181c-19-19-44-30-71-30z m-43 142c-23-24-22-61 1-85 24-23 61-23 85 0l171 197 11-2c13-2 26-4 40-4 26-2 53 7 73 25 25 25 38 60 34 96l-51-51-62-13-54 54 13 62 51 51c-36 4-71-8-96-34-32-31-25-89-21-113l2-11z"/>
</font>
</defs>
</svg>
